<!--! Wave Pattern 1 -->
<svg xmlns="http://www.w3.org/2000/svg" viewBox="0 0 1440 320"><path fill="#303030" fill-opacity="1" d="M0,192L24,181.3C48,171,96,149,144,128C192,107,240,85,288,96C336,107,384,149,432,186.7C480,224,528,256,576,234.7C624,213,672,139,720,101.3C768,64,816,64,864,80C912,96,960,128,1008,138.7C1056,149,1104,139,1152,117.3C1200,96,1248,64,1296,69.3C1344,75,1392,117,1416,138.7L1440,160L1440,320L1416,320C1392,320,1344,320,1296,320C1248,320,1200,320,1152,320C1104,320,1056,320,1008,320C960,320,912,320,864,320C816,320,768,320,720,320C672,320,624,320,576,320C528,320,480,320,432,320C384,320,336,320,288,320C240,320,192,320,144,320C96,320,48,320,24,320L0,320Z"></path></svg>

<!--! Wave Pattern 2 -->
<svg xmlns="http://www.w3.org/2000/svg" viewBox="0 0 1440 320"><path fill="#303030" fill-opacity="1" d="M0,128L24,133.3C48,139,96,149,144,149.3C192,149,240,139,288,117.3C336,96,384,64,432,74.7C480,85,528,139,576,138.7C624,139,672,85,720,58.7C768,32,816,32,864,48C912,64,960,96,1008,117.3C1056,139,1104,149,1152,128C1200,107,1248,53,1296,58.7C1344,64,1392,128,1416,160L1440,192L1440,320L1416,320C1392,320,1344,320,1296,320C1248,320,1200,320,1152,320C1104,320,1056,320,1008,320C960,320,912,320,864,320C816,320,768,320,720,320C672,320,624,320,576,320C528,320,480,320,432,320C384,320,336,320,288,320C240,320,192,320,144,320C96,320,48,320,24,320L0,320Z"></path></svg>

<!--! Wave Pattern 3 -->
<svg xmlns="http://www.w3.org/2000/svg" viewBox="0 0 1440 320"><path fill="#303030" fill-opacity="1" d="M0,32L24,37.3C48,43,96,53,144,58.7C192,64,240,64,288,64C336,64,384,64,432,80C480,96,528,128,576,117.3C624,107,672,53,720,58.7C768,64,816,128,864,128C912,128,960,64,1008,48C1056,32,1104,64,1152,101.3C1200,139,1248,181,1296,165.3C1344,149,1392,75,1416,37.3L1440,0L1440,320L1416,320C1392,320,1344,320,1296,320C1248,320,1200,320,1152,320C1104,320,1056,320,1008,320C960,320,912,320,864,320C816,320,768,320,720,320C672,320,624,320,576,320C528,320,480,320,432,320C384,320,336,320,288,320C240,320,192,320,144,320C96,320,48,320,24,320L0,320Z"></path></svg>

<!--! Wave Pattern 4 -->
<svg xmlns="http://www.w3.org/2000/svg" viewBox="0 0 1440 320"><path fill="#303030" fill-opacity="1" d="M0,96L40,85.3C80,75,160,53,240,74.7C320,96,400,160,480,192C560,224,640,224,720,197.3C800,171,880,117,960,106.7C1040,96,1120,128,1200,122.7C1280,117,1360,75,1400,53.3L1440,32L1440,320L1400,320C1360,320,1280,320,1200,320C1120,320,1040,320,960,320C880,320,800,320,720,320C640,320,560,320,480,320C400,320,320,320,240,320C160,320,80,320,40,320L0,320Z"></path></svg>

<!--! Wave Pattern 5 -->
<svg xmlns="http://www.w3.org/2000/svg" viewBox="0 0 1440 320"><path fill="#303030" fill-opacity="1" d="M0,32L40,42.7C80,53,160,75,240,74.7C320,75,400,53,480,69.3C560,85,640,139,720,165.3C800,192,880,192,960,170.7C1040,149,1120,107,1200,85.3C1280,64,1360,64,1400,64L1440,64L1440,320L1400,320C1360,320,1280,320,1200,320C1120,320,1040,320,960,320C880,320,800,320,720,320C640,320,560,320,480,320C400,320,320,320,240,320C160,320,80,320,40,320L0,320Z"></path></svg>

<!--! Wave Pattern 6 -->
<svg xmlns="http://www.w3.org/2000/svg" viewBox="0 0 1440 320"><path fill="#303030" fill-opacity="1" d="M0,64L40,74.7C80,85,160,107,240,112C320,117,400,107,480,101.3C560,96,640,96,720,101.3C800,107,880,117,960,138.7C1040,160,1120,192,1200,176C1280,160,1360,96,1400,64L1440,32L1440,320L1400,320C1360,320,1280,320,1200,320C1120,320,1040,320,960,320C880,320,800,320,720,320C640,320,560,320,480,320C400,320,320,320,240,320C160,320,80,320,40,320L0,320Z"></path></svg>

<!--! Wave Pattern 7 -->
<svg xmlns="http://www.w3.org/2000/svg" viewBox="0 0 1440 320"><path fill="#c7bbb2" fill-opacity="1" d="M0,32L48,74.7C96,117,192,203,288,208C384,213,480,139,576,122.7C672,107,768,149,864,138.7C960,128,1056,64,1152,42.7C1248,21,1344,43,1392,53.3L1440,64L1440,320L1392,320C1344,320,1248,320,1152,320C1056,320,960,320,864,320C768,320,672,320,576,320C480,320,384,320,288,320C192,320,96,320,48,320L0,320Z"></path></svg>

<!--! Wave Pattern 8 -->
<svg xmlns="http://www.w3.org/2000/svg" viewBox="0 0 1440 320"><path fill="#303030" fill-opacity="1" d="M0,128L48,154.7C96,181,192,235,288,245.3C384,256,480,224,576,181.3C672,139,768,85,864,74.7C960,64,1056,96,1152,96C1248,96,1344,64,1392,48L1440,32L1440,320L1392,320C1344,320,1248,320,1152,320C1056,320,960,320,864,320C768,320,672,320,576,320C480,320,384,320,288,320C192,320,96,320,48,320L0,320Z"></path></svg>

<!--! Wave Pattern 9 -->
<svg xmlns="http://www.w3.org/2000/svg" viewBox="0 0 1440 320"><path fill="#1f1f1f" fill-opacity="1" d="M0,128L48,149.3C96,171,192,213,288,213.3C384,213,480,171,576,160C672,149,768,171,864,165.3C960,160,1056,128,1152,112C1248,96,1344,96,1392,96L1440,96L1440,320L1392,320C1344,320,1248,320,1152,320C1056,320,960,320,864,320C768,320,672,320,576,320C480,320,384,320,288,320C192,320,96,320,48,320L0,320Z"></path></svg>

<!--! Wave Pattern 10 -->
<svg xmlns="http://www.w3.org/2000/svg" viewBox="0 0 1440 320"><path fill="#c7bbb2" fill-opacity="1" d="M0,96L48,117.3C96,139,192,181,288,170.7C384,160,480,96,576,69.3C672,43,768,53,864,64C960,75,1056,85,1152,85.3C1248,85,1344,75,1392,69.3L1440,64L1440,320L1392,320C1344,320,1248,320,1152,320C1056,320,960,320,864,320C768,320,672,320,576,320C480,320,384,320,288,320C192,320,96,320,48,320L0,320Z"></path></svg>